{"title":"Cloud Atlas (2012) CAM [Russian]","uid":7812684,"size":2208122880,"categoryP":"video","categoryS":"movies","magnet":"?xt=urn:btih:b48e0db5ee0e5eb98b1fa995d9454383f38e06e8&amp;dn=Cloud+Atlas+%282012%29+CAM+%5BRussian%5D+&amp;tr=udp%3A%2F%2Ftracker.openbittorrent.com%3A80&amp;tr=udp%3A%2F%2Fopen.demonii.com%3A1337&amp;tr=udp%3A%2F%2Ftracker.coppersurfer.tk%3A6969&amp;tr=udp%3A%2F%2Fexodus.desync.com%3A6969","seeders":0,"leechers":0,"uploader":"nana35","files":1,"time":1352572215,"description":"Russian audio only!\n\nMedia Info\nGeneral\n\nFormat                                   : AVI\nFormat/Info                              : Audio Video Interleave\nFormat profile                           : OpenDML\nFile size                                : 2.06 GiB\nDuration                                 : 2h 39mn\nOverall bit rate                         : 1 841 Kbps\nWriting application                      : VirtualDubMod 1.5.10.3 | www.virtualdub-fr.org || (build 2550/release)\nWriting library                          : VirtualDubMod build 2550/release\n\nVideo\nID                                       : 0\nFormat                                   : MPEG-4 Visual\nFormat profile                           : Advanced Simple@L5\nFormat settings, BVOP                    : 2\nFormat settings, QPel                    : No\nFormat settings, GMC                     : No warppoints\nFormat settings, Matrix                  : Default (MPEG)\nCodec ID                                 : XVID\nCodec ID/Hint                            : XviD\nDuration                                 : 2h 39mn\nBit rate                                 : 1 637 Kbps\nWidth                                    : 720 pixels\nHeight                                   : 264 pixels\nDisplay aspect ratio                     : 2.727\nFrame rate                               : 25.000 fps\nColor space                              : YUV\nChroma subsampling                       : 4:2:0\nBit depth                                : 8 bits\nScan type                                : Progressive\nCompression mode                         : Lossy\nBits/(Pixel*Frame)                       : 0.344\nStream size                              : 1.83 GiB (89%)\nWriting library                          : XviD 1.2.1 (UTC 2008-12-04)\n\nAudio\nID                                       : 1\nFormat                                   : AC-3\nFormat/Info                              : Audio Coding 3\nMode extension                           : CM (complete main)\nFormat settings, Endianness              : Big\nCodec ID                                 : 2000\nDuration                                 : 2h 39mn\nBit rate mode                            : Constant\nBit rate                                 : 192 Kbps\nChannel(s)                               : 2 channels\nChannel positions                        : Front: L R\nSampling rate                            : 48.0 KHz\nBit depth                                : 16 bits\nCompression mode                         : Lossy\nStream size                              : 220 MiB (10%)\nAlignment                                : Split accross interleaves\nInterleave, duration                     : 40 ms (1.00 video frame)\nInterleave, preload duration             : 500 ms\n\n","torrent":{"xt":"urn:btih:b48e0db5ee0e5eb98b1fa995d9454383f38e06e8","amp;dn":"Cloud+Atlas+%282012%29+CAM+%5BRussian%5D+","amp;tr":["udp%3A%2F%2Ftracker.openbittorrent.com%3A80","udp%3A%2F%2Fopen.demonii.com%3A1337","udp%3A%2F%2Ftracker.coppersurfer.tk%3A6969","udp%3A%2F%2Fexodus.desync.com%3A6969"],"infoHash":"b48e0db5ee0e5eb98b1fa995d9454383f38e06e8","infoHashBuffer":{"type":"Buffer","data":[180,142,13,181,238,14,94,185,139,31,169,149,217,69,67,131,243,142,6,232]},"announce":[],"urlList":[]}}